<?xml version="1.0" encoding="iso-8859-1"?>
<!-- Generator: Adobe Illustrator 19.0.0, SVG Export Plug-In . SVG Version: 6.00 Build 0)  -->
<svg version="1.1" id="Capa_1" xmlns="http://www.w3.org/2000/svg" xmlns:xlink="http://www.w3.org/1999/xlink" x="0px" y="0px"
	 viewBox="0 0 512 512" style="enable-background:new 0 0 512 512;" xml:space="preserve">
<circle style="fill:#5b6ccb;" cx="256" cy="256.001" r="34.133"/>
<path style="fill: #4457c3;" d="M256,221.868c-9.899,0-18.739,4.275-24.969,11.008c-1.621,8.951,0.239,18.509,6.093,26.394
	c11.23,15.138,32.606,18.313,47.753,7.074c1.724-1.28,3.243-2.722,4.651-4.233c0.35-1.98,0.606-4.011,0.606-6.11
	C290.133,237.151,274.85,221.868,256,221.868z"/>
<path style="fill:#EA6B65;" d="M256,349.868c-125.841,0-256-35.115-256-93.867s130.159-93.867,256-93.867
	c65.775,0,128.068,8.755,175.394,24.653c0.316,0.102,0.631,0.23,0.93,0.375l49.203,23.287c0.427,0.196,0.836,0.435,1.229,0.708
	C502.161,224.667,512,239.754,512,256.001C512,314.753,381.841,349.868,256,349.868z M256,179.201
	c-113.007,0-238.933,31.539-238.933,76.8s125.926,76.8,238.933,76.8s238.933-31.539,238.933-76.8
	c0-12.621-11.486-23.45-21.367-30.43l-48.085-22.767C379.913,187.589,319.761,179.201,256,179.201z"/>
<path style="fill:#F7BA61;" d="M363,483.099c-53.222,0-133.222-84.787-188.288-180.164c-33.007-57.19-56.61-115.686-66.449-164.719
	c-0.06-0.307-0.111-0.614-0.137-0.922l-4.523-51.123c-0.043-0.427-0.043-0.853-0.017-1.28c1.929-31.283,14.345-44.774,24.414-50.594
	c50.85-29.38,146.364,65.792,209.289,174.771c33.51,58.044,57.242,117.239,66.833,166.682
	c10.155,52.386,3.021,88.593-20.122,101.956C377.651,481.375,370.594,483.099,363,483.099z M125.082,135.314
	c9.54,47.172,32.401,103.646,64.41,159.087c56.508,97.877,146.825,191.164,185.975,168.525
	c16.111-9.293,20.446-39.885,11.904-83.925c-9.233-47.633-32.265-104.943-64.862-161.399
	C266.001,119.724,175.693,26.463,136.533,49.085c-11.503,6.639-14.993,23.228-15.872,36.233L125.082,135.314z"/>
<circle style="fill:#D68F29;" cx="110.933" cy="110.935" r="25.6"/>
<path style="fill:#EA9D2D;" d="M93.867,128.001c0,0.708,0.154,1.365,0.205,2.065c4.514,3.977,10.368,6.468,16.862,6.468
	c14.14,0,25.6-11.46,25.6-25.6c0-0.708-0.154-1.365-0.205-2.065c-4.514-3.977-10.377-6.468-16.862-6.468
	C105.327,102.401,93.867,113.861,93.867,128.001z"/>
<circle style="fill:#C7463B;" cx="452.267" cy="204.801" r="25.6"/>
<path style="fill:#DC4D41;" d="M452.267,179.201c-4.873,0-9.387,1.434-13.261,3.806c-2.372,3.874-3.806,8.388-3.806,13.261
	c0,14.14,11.46,25.6,25.6,25.6c4.873,0,9.387-1.434,13.261-3.806c2.372-3.874,3.806-8.38,3.806-13.261
	C477.867,190.661,466.406,179.201,452.267,179.201z"/>
<path style="fill:#8ACED8;" d="M149.001,483.099c-7.603,0-14.643-1.724-21.001-5.393c-11.273-6.511-24.713-22.135-24.678-59.58
	c0-0.358,0.026-0.708,0.068-1.067l6.357-50.133c0.034-0.265,0.085-0.529,0.145-0.802c10.667-47.343,33.681-103.117,64.819-157.056
	C237.628,100.08,333.09,4.951,384,34.297c23.142,13.355,30.285,49.57,20.122,101.956c-9.591,49.442-33.323,108.638-66.833,166.682
	C282.232,398.303,202.223,483.099,149.001,483.099z M120.388,418.672c0.043,16.094,2.918,36.617,16.145,44.254
	c39.228,22.63,129.476-70.647,185.975-168.525c32.589-56.448,55.629-113.766,64.862-161.399
	c8.542-44.032,4.207-74.624-11.904-83.917C336.256,26.42,245.99,119.732,189.491,217.61
	c-30.217,52.326-52.523,106.249-62.857,151.876L120.388,418.672z"/>
<circle style="fill:#1F6C8C;" cx="110.933" cy="392.535" r="25.6"/>
<path style="fill:#3B869E;" d="M110.933,366.935c-4.873,0-9.387,1.434-13.261,3.806c-2.372,3.874-3.806,8.388-3.806,13.261
	c0,14.14,11.46,25.6,25.6,25.6c4.873,0,9.387-1.434,13.261-3.806c2.372-3.874,3.806-8.38,3.806-13.261
	C136.533,378.395,125.073,366.935,110.933,366.935z"/>
<path d="M256,213.335c-23.526,0-42.667,19.14-42.667,42.667s19.14,42.667,42.667,42.667c23.526,0,42.667-19.14,42.667-42.667
	S279.526,213.335,256,213.335z M256,281.601c-14.114,0-25.6-11.486-25.6-25.6c0-14.114,11.486-25.6,25.6-25.6
	c14.114,0,25.6,11.486,25.6,25.6C281.6,270.115,270.114,281.601,256,281.601z"/>
<path d="M485.274,213.061c0.666-2.654,1.126-5.393,1.126-8.26c0-18.825-15.309-34.133-34.133-34.133
	c-11.315,0-21.291,5.598-27.503,14.097c-9.788-3.072-20.019-5.914-30.882-8.38c4.292-13.901,7.757-27.349,10.24-40.132
	C414.285,83.867,407.142,47.66,384,34.297c-31.633-18.236-80.469,11.605-128.009,62.95C208.435,45.893,159.599,16.044,128,34.297
	c-9.207,5.325-20.292,17.246-23.603,43.162C88.695,80.53,76.8,94.354,76.8,110.935c0,18.432,14.711,33.408,33.007,34.022
	c2.278,10.266,4.992,20.813,8.38,31.744C50.108,192.215,0,219.555,0,256.001c0,36.463,50.159,63.812,118.289,79.326
	c-2.449,7.893-4.599,15.616-6.477,23.168c-0.299-0.009-0.58-0.085-0.879-0.085c-18.825,0-34.133,15.309-34.133,34.133
	c0,16.273,11.469,29.884,26.735,33.271c1.69,31.923,13.995,45.85,24.465,51.891c6.357,3.669,13.397,5.393,21.001,5.393
	c30.199,0,69.009-27.307,106.999-68.335c37.99,41.037,76.8,68.343,106.999,68.335c7.595,0,14.652-1.724,21.001-5.393
	c23.142-13.355,30.285-49.57,20.122-101.956c-2.5-12.877-5.999-26.436-10.342-40.439C461.875,319.796,512,292.456,512,256.001
	C512,240.505,502.938,226.083,485.274,213.061z M452.267,187.735c9.412,0,17.067,7.654,17.067,17.067
	c0,9.412-7.654,17.067-17.067,17.067s-17.067-7.654-17.067-17.067C435.2,195.389,442.854,187.735,452.267,187.735z M375.467,49.085
	c16.111,9.293,20.446,39.885,11.904,83.925c-2.458,12.681-5.956,26.078-10.291,39.936c-21.359-4.07-44.254-7.04-68.139-8.815
	c-13.227-19.277-27.204-37.504-41.438-53.99C309.649,63.924,351.829,35.423,375.467,49.085z M322.509,294.401
	c-7.185,12.45-14.925,24.823-23.031,36.898c-14.507,0.981-29.099,1.502-43.477,1.502s-28.962-0.512-43.469-1.502
	c-8.107-12.075-15.846-24.448-23.04-36.898c-7.39-12.8-14.225-25.643-20.591-38.426c6.366-12.791,13.227-25.626,20.591-38.374
	c7.185-12.45,14.925-24.823,23.031-36.898c14.507-0.981,29.099-1.502,43.477-1.502c14.711,0,29.193,0.495,43.383,1.374
	c8.141,12.117,15.915,24.533,23.125,37.026c7.39,12.8,14.217,25.634,20.574,38.4C336.725,268.767,329.899,281.601,322.509,294.401z
	 M352.324,275.389c7.305,15.949,13.798,31.693,19.2,46.95c-16.137,2.995-33.101,5.393-50.372,7.134
	c5.572-8.713,10.965-17.579,16.137-26.53C342.588,293.77,347.537,284.571,352.324,275.389z M287.07,349.143
	c-10.052,13.952-20.497,27.324-31.061,39.706c-10.564-12.382-21.018-25.745-31.07-39.706c10.334,0.469,20.71,0.734,31.061,0.734
	C266.351,349.868,276.727,349.612,287.07,349.143z M190.839,329.473c-17.237-1.741-34.159-4.13-50.261-7.117
	c5.427-15.309,11.767-31.036,19.072-47.01c4.796,9.199,9.754,18.406,15.053,27.588C179.883,311.895,185.276,320.761,190.839,329.473
	z M159.676,236.631c-7.305-15.957-13.756-31.701-19.174-46.967c16.137-2.995,33.092-5.393,50.364-7.134
	c-5.572,8.713-10.982,17.57-16.162,26.539C169.429,218.224,164.471,227.423,159.676,236.631z M224.93,162.868
	c10.052-13.952,20.497-27.324,31.061-39.706c10.564,12.382,21.026,25.754,31.078,39.714c-10.257-0.435-20.591-0.742-31.07-0.742
	C245.649,162.135,235.264,162.399,224.93,162.868z M337.289,209.068c-5.231-9.054-10.701-17.997-16.333-26.803
	c17.647,1.673,34.637,3.994,50.714,6.989c-5.436,15.386-11.972,31.266-19.337,47.369
	C347.537,227.432,342.588,218.241,337.289,209.068z M93.867,110.935c0-9.412,7.654-17.067,17.067-17.067S128,101.522,128,110.935
	s-7.654,17.067-17.067,17.067S93.867,120.347,93.867,110.935z M126.447,141.168c10.999-5.675,18.62-17.024,18.62-30.234
	c0-15.155-9.993-27.887-23.689-32.324c1.579-11.529,5.564-23.987,15.155-29.525c23.603-13.636,65.792,14.865,107.955,61.065
	c-14.259,16.503-28.245,34.765-41.489,54.067c-23.501,1.826-46.464,4.838-68.011,8.977
	C131.524,162.152,128.734,151.493,126.447,141.168z M17.067,256.001c0-27.238,45.636-49.493,106.598-62.908
	c7.117,20.386,15.949,41.54,26.274,62.95c-10.291,21.367-19.098,42.505-26.223,62.891C62.729,305.512,17.067,283.248,17.067,256.001
	z M93.867,392.535c0-9.412,7.654-17.067,17.067-17.067S128,383.122,128,392.535c0,9.412-7.654,17.067-17.067,17.067
	S93.867,401.947,93.867,392.535z M136.533,462.926c-11.511-6.647-15.164-23.057-15.949-37.811
	c14.106-4.198,24.482-17.135,24.482-32.58c0-12.493-6.818-23.322-16.862-29.269c1.954-7.945,4.224-16.085,6.844-24.439
	c21.53,4.13,44.459,7.142,67.934,8.969c13.244,19.311,27.238,37.598,41.498,54.101C202.334,448.078,160.171,476.562,136.533,462.926
	z M387.371,379.001c8.542,44.041,4.207,74.633-11.904,83.925c-23.595,13.645-65.775-14.848-107.938-61.039
	c14.259-16.503,28.254-34.782,41.489-54.093c23.484-1.826,46.43-4.838,67.977-8.977
	C381.363,352.761,384.896,366.243,387.371,379.001z M388.361,318.909c-7.108-20.361-15.949-41.506-26.274-62.908
	c10.402-21.555,19.285-42.846,26.419-63.343c10.581,2.364,20.523,5.103,30.037,8.047c-0.162,1.357-0.41,2.697-0.41,4.096
	c0,18.825,15.309,34.133,34.133,34.133c9.779,0,18.543-4.181,24.772-10.786c8.909,6.938,17.894,16.691,17.894,27.853
	C494.933,283.24,449.306,305.495,388.361,318.909z"/>
<g>
</g>
<g>
</g>
<g>
</g>
<g>
</g>
<g>
</g>
<g>
</g>
<g>
</g>
<g>
</g>
<g>
</g>
<g>
</g>
<g>
</g>
<g>
</g>
<g>
</g>
<g>
</g>
<g>
</g>
</svg>
